<svg width="800" height="800">
  <rect x="0" y="0" width="50" height="50" fill="black"/>
  <rect x="50" y="0" width="50" height="50" fill="black"/>
  <rect x="100" y="0" width="50" height="50" fill="black"/>
  <rect x="150" y="0" width="50" height="50" fill="black"/>
  <rect x="200" y="0" width="50" height="50" fill="black"/>
  <rect x="250" y="0" width="50" height="50" fill="black"/>
  <rect x="300" y="0" width="50" height="50" fill="black"/>
  <rect x="350" y="0" width="50" height="50" fill="black"/>
  <rect x="400" y="0" width="50" height="50" fill="black"/>
  <rect x="450" y="0" width="50" height="50" fill="black"/>
  <rect x="500" y="0" width="50" height="50" fill="black"/>
  <rect x="550" y="0" width="50" height="50" fill="black"/>
  <rect x="600" y="0" width="50" height="50" fill="black"/>
  <rect x="650" y="0" width="50" height="50" fill="black"/>
  <rect x="700" y="0" width="50" height="50" fill="black"/>
  <rect x="750" y="0" width="50" height="50" fill="black"/>
  <rect x="0" y="50" width="50" height="50" fill="black"/>
  <rect x="750" y="50" width="50" height="50" fill="black"/>
  <rect x="0" y="100" width="50" height="50" fill="black"/>
  <rect x="100" y="100" width="50" height="50" fill="black"/>
  <rect x="200" y="100" width="50" height="50" fill="black"/>
  <rect x="300" y="100" width="50" height="50" fill="black"/>
  <rect x="400" y="100" width="50" height="50" fill="black"/>
  <rect x="500" y="100" width="50" height="50" fill="black"/>
  <rect x="600" y="100" width="50" height="50" fill="black"/>
  <rect x="750" y="100" width="50" height="50" fill="black"/>
  <rect x="0" y="150" width="50" height="50" fill="black"/>
  <rect x="100" y="150" width="50" height="50" fill="black"/>
  <rect x="200" y="150" width="50" height="50" fill="black"/>
  <rect x="300" y="150" width="50" height="50" fill="black"/>
  <rect x="400" y="150" width="50" height="50" fill="black"/>
  <rect x="500" y="150" width="50" height="50" fill="black"/>
  <rect x="600" y="150" width="50" height="50" fill="black"/>
  <rect x="750" y="150" width="50" height="50" fill="black"/>
  <rect x="0" y="200" width="50" height="50" fill="black"/>
  <rect x="100" y="200" width="50" height="50" fill="black"/>
  <rect x="200" y="200" width="50" height="50" fill="black"/>
  <rect x="300" y="200" width="50" height="50" fill="black"/>
  <rect x="400" y="200" width="50" height="50" fill="black"/>
  <rect x="500" y="200" width="50" height="50" fill="black"/>
  <rect x="600" y="200" width="50" height="50" fill="black"/>
  <rect x="750" y="200" width="50" height="50" fill="black"/>
  <rect x="0" y="250" width="50" height="50" fill="black"/>
  <rect x="100" y="250" width="50" height="50" fill="black"/>
  <rect x="200" y="250" width="50" height="50" fill="black"/>
  <rect x="300" y="250" width="50" height="50" fill="black"/>
  <rect x="400" y="250" width="50" height="50" fill="black"/>
  <rect x="500" y="250" width="50" height="50" fill="black"/>
  <rect x="600" y="250" width="50" height="50" fill="black"/>
  <rect x="750" y="250" width="50" height="50" fill="black"/>
  <rect x="0" y="300" width="50" height="50" fill="black"/>
  <rect x="100" y="300" width="50" height="50" fill="black"/>
  <rect x="200" y="300" width="50" height="50" fill="black"/>
  <rect x="300" y="300" width="50" height="50" fill="black"/>
  <rect x="400" y="300" width="50" height="50" fill="black"/>
  <rect x="500" y="300" width="50" height="50" fill="black"/>
  <rect x="600" y="300" width="50" height="50" fill="black"/>
  <rect x="750" y="300" width="50" height="50" fill="black"/>
  <rect x="0" y="350" width="50" height="50" fill="black"/>
  <rect x="100" y="350" width="50" height="50" fill="black"/>
  <rect x="200" y="350" width="50" height="50" fill="black"/>
  <rect x="300" y="350" width="50" height="50" fill="black"/>
  <rect x="400" y="350" width="50" height="50" fill="black"/>
  <rect x="500" y="350" width="50" height="50" fill="black"/>
  <rect x="600" y="350" width="50" height="50" fill="black"/>
  <rect x="750" y="350" width="50" height="50" fill="black"/>
  <rect x="0" y="400" width="50" height="50" fill="black"/>
  <rect x="100" y="400" width="50" height="50" fill="black"/>
  <rect x="200" y="400" width="50" height="50" fill="black"/>
  <rect x="300" y="400" width="50" height="50" fill="black"/>
  <rect x="400" y="400" width="50" height="50" fill="black"/>
  <rect x="500" y="400" width="50" height="50" fill="black"/>
  <rect x="600" y="400" width="50" height="50" fill="black"/>
  <rect x="750" y="400" width="50" height="50" fill="black"/>
  <rect x="0" y="450" width="50" height="50" fill="black"/>
  <rect x="750" y="450" width="50" height="50" fill="black"/>
  <rect x="0" y="500" width="50" height="50" fill="black"/>
  <rect x="100" y="500" width="50" height="50" fill="black"/>
  <rect x="200" y="500" width="50" height="50" fill="black"/>
  <rect x="300" y="500" width="50" height="50" fill="black"/>
  <rect x="400" y="500" width="50" height="50" fill="black"/>
  <rect x="500" y="500" width="50" height="50" fill="black"/>
  <rect x="600" y="500" width="50" height="50" fill="black"/>
  <rect x="750" y="500" width="50" height="50" fill="black"/>
  <rect x="0" y="550" width="50" height="50" fill="black"/>
  <rect x="100" y="550" width="50" height="50" fill="black"/>
  <rect x="200" y="550" width="50" height="50" fill="black"/>
  <rect x="300" y="550" width="50" height="50" fill="black"/>
  <rect x="400" y="550" width="50" height="50" fill="black"/>
  <rect x="500" y="550" width="50" height="50" fill="black"/>
  <rect x="600" y="550" width="50" height="50" fill="black"/>
  <rect x="750" y="550" width="50" height="50" fill="black"/>
  <rect x="0" y="600" width="50" height="50" fill="black"/>
  <rect x="100" y="600" width="50" height="50" fill="black"/>
  <rect x="200" y="600" width="50" height="50" fill="black"/>
  <rect x="300" y="600" width="50" height="50" fill="black"/>
  <rect x="400" y="600" width="50" height="50" fill="black"/>
  <rect x="500" y="600" width="50" height="50" fill="black"/>
  <rect x="600" y="600" width="50" height="50" fill="black"/>
  <rect x="750" y="600" width="50" height="50" fill="black"/>
  <rect x="0" y="650" width="50" height="50" fill="black"/>
  <rect x="100" y="650" width="50" height="50" fill="black"/>
  <rect x="200" y="650" width="50" height="50" fill="black"/>
  <rect x="300" y="650" width="50" height="50" fill="black"/>
  <rect x="400" y="650" width="50" height="50" fill="black"/>
  <rect x="500" y="650" width="50" height="50" fill="black"/>
  <rect x="600" y="650" width="50" height="50" fill="black"/>
  <rect x="750" y="650" width="50" height="50" fill="black"/>
  <rect x="0" y="700" width="50" height="50" fill="black"/>
  <rect x="100" y="700" width="50" height="50" fill="black"/>
  <rect x="200" y="700" width="50" height="50" fill="black"/>
  <rect x="300" y="700" width="50" height="50" fill="black"/>
  <rect x="400" y="700" width="50" height="50" fill="black"/>
  <rect x="500" y="700" width="50" height="50" fill="black"/>
  <rect x="600" y="700" width="50" height="50" fill="black"/>
  <rect x="750" y="700" width="50" height="50" fill="black"/>
  <rect x="0" y="750" width="50" height="50" fill="black"/>
  <rect x="50" y="750" width="50" height="50" fill="black"/>
  <rect x="100" y="750" width="50" height="50" fill="black"/>
  <rect x="150" y="750" width="50" height="50" fill="black"/>
  <rect x="200" y="750" width="50" height="50" fill="black"/>
  <rect x="250" y="750" width="50" height="50" fill="black"/>
  <rect x="300" y="750" width="50" height="50" fill="black"/>
  <rect x="350" y="750" width="50" height="50" fill="black"/>
  <rect x="400" y="750" width="50" height="50" fill="black"/>
  <rect x="450" y="750" width="50" height="50" fill="black"/>
  <rect x="500" y="750" width="50" height="50" fill="black"/>
  <rect x="550" y="750" width="50" height="50" fill="black"/>
  <rect x="600" y="750" width="50" height="50" fill="black"/>
  <rect x="650" y="750" width="50" height="50" fill="black"/>
  <rect x="700" y="750" width="50" height="50" fill="black"/>
  <rect x="750" y="750" width="50" height="50" fill="black"/>
</svg>